<svg version="1.0" xmlns="http://www.w3.org/2000/svg"
 width="2560.000000pt" height="2560.000000pt" viewBox="0 0 2560.000000 2560.000000"
 preserveAspectRatio="xMidYMid meet">

<g transform="translate(0.000000,2560.000000) scale(0.100000,-0.100000)"
fill="#ff1d25" stroke="none">
<path d="M18268 21475 c-2 -3 -47 -7 -99 -9 -108 -6 -309 -25 -318 -31 -4 -2
-34 -6 -67 -9 -34 -3 -81 -10 -106 -15 -24 -6 -64 -12 -89 -15 -58 -6 -277
-52 -312 -65 -15 -6 -42 -12 -60 -14 -17 -2 -63 -13 -102 -25 -38 -11 -126
-37 -195 -57 -69 -20 -152 -48 -185 -61 -33 -13 -70 -26 -82 -28 -12 -3 -53
-18 -91 -35 -39 -17 -75 -31 -80 -31 -35 0 -598 -272 -680 -328 -15 -10 -58
-36 -97 -57 -38 -21 -91 -54 -116 -72 -26 -18 -49 -33 -53 -33 -3 0 -38 -23
-78 -51 -40 -27 -91 -62 -113 -77 -22 -14 -63 -45 -92 -69 -28 -24 -55 -43
-60 -43 -5 0 -20 -11 -33 -25 -13 -14 -29 -25 -35 -25 -7 0 -20 -10 -31 -21
-10 -12 -41 -40 -69 -61 -192 -152 -614 -566 -726 -713 -13 -16 -49 -60 -80
-96 -31 -36 -71 -88 -89 -115 -19 -27 -39 -53 -46 -59 -6 -5 -37 -48 -68 -93
-31 -46 -63 -91 -71 -99 -8 -8 -15 -22 -15 -31 0 -18 -454 -899 -555 -1077
-73 -129 -235 -434 -955 -1800 -293 -555 -534 -1012 -535 -1015 -2 -3 35 -60
83 -125 47 -66 154 -214 237 -330 83 -115 245 -340 360 -500 115 -159 236
-328 270 -375 34 -47 185 -256 335 -465 150 -209 286 -398 302 -420 l28 -40
-965 -965 c-531 -531 -965 -969 -965 -973 0 -5 65 -117 144 -250 79 -133 232
-393 341 -577 109 -184 351 -594 538 -910 187 -316 462 -782 612 -1035 150
-253 311 -526 360 -607 48 -82 85 -154 82 -160 -4 -10 -553 -672 -1170 -1411
l-40 -49 12 -81 c6 -45 32 -210 56 -367 50 -320 116 -748 175 -1135 22 -143
47 -299 55 -346 15 -89 19 -126 10 -118 -2 3 -34 108 -71 235 -36 126 -98 337
-136 469 -38 132 -103 355 -143 495 -41 140 -102 350 -136 465 -34 116 -68
238 -77 271 l-15 62 95 148 c52 82 245 385 428 674 183 289 368 580 412 648
43 68 78 127 78 132 0 10 -24 41 -242 320 -62 80 -223 286 -358 459 -135 172
-295 377 -355 455 -61 77 -205 263 -321 411 -116 149 -248 317 -293 375 -45
58 -198 253 -339 435 -141 181 -301 386 -355 455 -54 69 -134 171 -178 228
l-80 102 273 354 c150 195 411 534 580 753 169 219 421 547 561 728 140 182
252 335 248 341 -3 6 -137 150 -297 320 -160 170 -463 494 -674 719 -211 226
-501 535 -644 688 -144 152 -262 282 -264 287 -2 5 42 132 98 282 56 150 130
350 165 443 35 94 120 321 188 505 69 184 154 414 190 510 36 96 115 310 177
475 62 165 141 379 177 475 36 96 116 311 178 478 123 328 119 306 69 377 -12
17 -31 50 -43 75 -11 25 -31 61 -43 80 -94 153 -133 216 -138 220 -6 6 -92
132 -135 199 -16 25 -37 53 -46 62 -9 9 -31 38 -49 65 -18 27 -38 54 -44 59
-7 6 -22 24 -34 42 -26 36 -57 75 -87 106 -11 12 -27 31 -35 43 -52 74 -391
420 -530 539 -51 44 -120 104 -154 134 -61 53 -122 102 -220 174 -109 80 -169
122 -187 133 -10 6 -27 18 -37 27 -10 10 -22 17 -26 17 -5 0 -25 13 -45 28
-20 16 -72 50 -116 76 -76 46 -94 56 -182 108 -72 41 -128 71 -238 125 -60 30
-126 63 -145 73 -19 10 -80 36 -135 60 -55 23 -125 52 -155 65 -70 29 -153 61
-250 94 -85 30 -216 73 -232 76 -17 4 -71 19 -185 51 -32 10 -68 18 -80 20
-12 1 -45 10 -73 19 -28 9 -54 15 -57 12 -2 -3 -22 1 -44 8 -21 8 -59 16 -83
19 -25 3 -64 10 -88 15 -51 11 -180 33 -223 37 -80 8 -129 13 -167 19 -131 18
-323 28 -558 27 -403 0 -485 -6 -850 -59 -96 -14 -196 -28 -222 -30 -27 -3
-48 -9 -48 -14 0 -5 -15 -9 -32 -9 -18 0 -51 -5 -73 -11 -22 -6 -65 -15 -95
-21 -30 -6 -59 -14 -64 -19 -6 -5 -19 -9 -30 -9 -23 0 -197 -47 -241 -65 -16
-7 -48 -16 -70 -20 -22 -4 -44 -10 -50 -15 -5 -4 -37 -15 -70 -25 -33 -9 -64
-20 -70 -24 -5 -4 -37 -16 -70 -26 -33 -10 -69 -24 -80 -30 -11 -7 -38 -18
-60 -25 -22 -7 -45 -16 -51 -21 -6 -5 -30 -15 -53 -24 -90 -31 -473 -221 -479
-236 -2 -5 -9 -9 -16 -9 -10 0 -200 -108 -246 -140 -8 -6 -32 -21 -52 -33
-107 -63 -449 -309 -497 -358 -9 -8 -31 -26 -50 -39 -18 -13 -48 -37 -65 -54
-17 -17 -54 -49 -81 -71 -140 -113 -607 -603 -685 -719 -15 -23 -142 -194
-189 -255 -32 -41 -59 -81 -68 -101 -3 -8 -19 -31 -35 -51 -15 -20 -28 -39
-28 -43 0 -3 -20 -36 -45 -73 -25 -37 -45 -71 -45 -76 0 -6 -11 -25 -25 -42
-22 -29 -49 -77 -135 -240 -14 -27 -31 -59 -37 -70 -25 -44 -85 -174 -85 -182
0 -4 -8 -22 -19 -39 -10 -17 -30 -61 -44 -98 -14 -37 -34 -85 -45 -107 -11
-21 -18 -39 -15 -39 3 0 -6 -22 -20 -50 -14 -27 -25 -55 -25 -63 0 -7 -12 -42
-26 -78 -14 -35 -27 -73 -29 -84 -1 -11 -12 -42 -24 -68 -11 -26 -20 -51 -19
-55 1 -4 -6 -30 -15 -58 -10 -28 -20 -61 -22 -74 -2 -12 -12 -48 -21 -79 -9
-31 -18 -67 -19 -81 -2 -14 -8 -38 -15 -54 -6 -16 -13 -46 -15 -67 -3 -21 -9
-49 -15 -63 -5 -14 -12 -46 -15 -72 -3 -25 -7 -49 -9 -53 -5 -7 -37 -189 -41
-231 -1 -14 -8 -68 -15 -120 -7 -52 -14 -111 -15 -130 -2 -19 -6 -69 -9 -110
-31 -343 -17 -827 35 -1195 12 -82 24 -157 27 -165 6 -15 20 -81 43 -195 6
-33 15 -64 19 -70 4 -5 11 -30 15 -55 4 -25 13 -61 20 -80 7 -19 25 -75 40
-125 14 -49 32 -103 40 -120 7 -16 21 -55 30 -85 9 -30 22 -66 29 -80 8 -14
19 -42 26 -63 7 -22 18 -51 26 -65 8 -15 14 -31 14 -35 0 -5 18 -46 40 -93 22
-47 43 -96 46 -109 3 -14 10 -25 14 -25 4 0 15 -21 25 -47 10 -27 23 -55 29
-63 7 -8 25 -44 41 -80 16 -36 34 -72 41 -80 6 -8 21 -35 33 -60 27 -57 93
-173 107 -191 7 -8 24 -36 38 -64 15 -27 47 -81 72 -120 24 -38 52 -83 62 -99
9 -15 35 -55 57 -87 22 -33 51 -77 65 -98 47 -73 133 -196 140 -201 4 -3 19
-24 34 -48 15 -23 34 -51 44 -62 27 -29 37 -43 67 -88 15 -23 31 -42 35 -42 4
0 12 -10 18 -22 11 -25 45 -69 79 -105 12 -13 35 -42 52 -65 16 -24 42 -57 58
-74 15 -16 41 -48 58 -70 16 -21 34 -43 41 -49 6 -5 33 -37 59 -70 26 -33 51
-62 55 -65 3 -3 42 -45 85 -95 280 -320 733 -782 1065 -1085 58 -52 118 -108
135 -125 16 -16 64 -59 105 -95 120 -104 171 -149 240 -214 36 -34 95 -85 130
-114 103 -83 188 -153 245 -202 67 -57 158 -132 260 -215 44 -35 109 -88 145
-117 36 -30 88 -70 115 -90 28 -20 61 -48 74 -62 14 -14 28 -26 33 -26 4 0 55
-38 113 -85 57 -47 108 -85 111 -85 4 0 26 -17 50 -38 23 -20 88 -71 144 -112
56 -41 119 -90 140 -108 20 -17 42 -32 47 -32 5 0 22 -14 38 -30 16 -17 33
-30 38 -30 9 0 39 -23 116 -88 21 -17 41 -32 45 -32 3 0 33 -21 67 -47 34 -27
87 -65 118 -87 31 -21 70 -51 86 -67 17 -15 34 -28 38 -28 8 0 42 -24 101 -74
19 -15 37 -27 41 -27 4 0 24 -15 45 -33 34 -29 83 -66 220 -167 26 -19 73 -55
105 -80 32 -25 66 -50 77 -56 11 -7 34 -26 52 -43 17 -17 35 -31 40 -31 4 0
52 -36 107 -80 54 -44 102 -80 105 -80 3 0 24 -16 47 -35 98 -82 167 -135 173
-135 4 0 28 -19 55 -42 26 -24 78 -65 114 -93 73 -54 108 -82 208 -163 36 -28
70 -52 74 -52 5 0 22 -14 39 -31 16 -17 54 -48 84 -69 30 -21 66 -50 79 -64
14 -14 29 -26 34 -26 5 0 34 -22 66 -50 32 -27 62 -50 67 -50 6 0 26 -16 45
-36 18 -19 57 -50 84 -69 28 -18 59 -43 70 -55 11 -12 43 -37 70 -55 28 -19
66 -50 84 -69 19 -20 39 -36 44 -36 6 0 38 -24 73 -53 35 -28 95 -77 134 -107
39 -30 88 -69 108 -86 20 -17 64 -52 97 -78 144 -113 205 -161 280 -221 44
-36 100 -80 125 -98 24 -17 65 -50 90 -72 25 -23 58 -49 75 -60 16 -10 50 -37
75 -60 25 -22 56 -48 70 -57 14 -9 51 -38 82 -64 32 -27 90 -75 130 -106 40
-32 212 -169 382 -305 170 -137 332 -265 360 -287 28 -21 67 -54 86 -72 20
-19 40 -34 44 -34 5 0 39 -27 76 -60 37 -33 71 -60 75 -60 3 0 39 -28 80 -63
40 -34 121 -100 180 -147 60 -47 142 -113 184 -147 42 -34 110 -89 151 -123
41 -33 104 -84 139 -113 35 -28 85 -67 110 -86 25 -19 69 -54 96 -79 28 -24
73 -59 100 -76 60 -38 180 -79 207 -70 10 3 25 1 33 -6 10 -8 36 -8 102 1 109
14 194 58 312 163 44 39 104 91 133 114 29 24 131 110 226 190 95 81 187 157
205 170 18 13 50 40 72 61 22 21 65 57 95 81 30 23 78 62 105 87 122 108 224
193 232 193 5 0 22 14 39 31 16 17 61 56 99 87 39 30 93 76 122 101 28 25 82
71 119 101 37 30 102 85 145 123 43 37 82 67 86 67 5 0 25 16 44 36 18 20 61
57 94 82 33 25 83 66 111 91 28 25 82 71 119 101 70 57 185 152 290 240 33 28
101 84 150 126 50 41 112 93 138 117 27 23 59 49 72 57 12 8 75 60 140 115 64
55 126 105 137 112 11 6 44 34 72 62 28 28 55 51 59 51 4 0 48 35 98 77 50 43
116 98 147 122 32 24 78 62 104 85 26 22 72 61 103 86 31 25 81 65 110 90 29
25 117 97 195 160 79 63 164 134 190 157 26 24 49 41 52 38 2 -2 26 18 53 45
27 28 53 50 59 50 5 0 27 16 50 35 109 94 169 143 217 180 29 22 76 60 105 85
29 25 76 63 105 85 29 22 74 58 101 80 26 22 68 56 93 75 26 19 68 54 94 78
27 23 52 42 58 42 5 0 24 16 43 35 19 19 38 35 43 35 6 0 29 17 52 38 35 32
184 148 276 217 15 11 78 59 141 107 62 49 160 124 217 167 57 44 118 93 135
110 18 17 37 31 42 31 6 0 23 13 39 30 16 16 33 30 38 30 5 0 30 18 55 40 26
22 135 110 242 195 226 180 307 246 365 297 23 21 46 38 52 38 5 0 27 18 48
41 22 22 72 65 110 94 39 30 90 74 115 99 24 25 49 46 55 46 5 1 35 23 65 51
85 78 269 239 335 294 33 27 90 79 126 115 36 36 128 121 204 190 137 123 659
639 825 815 121 129 254 274 287 315 15 19 49 57 74 85 43 47 122 138 179 208
13 17 35 42 48 56 13 14 31 38 40 53 9 16 20 28 24 28 4 0 21 20 37 44 17 25
37 51 43 58 29 31 96 116 125 158 17 25 43 59 57 75 24 27 91 120 183 254 18
25 36 51 40 56 5 6 17 24 27 40 10 17 25 37 33 45 14 15 68 99 165 258 26 42
55 88 66 102 10 14 38 61 61 105 24 44 49 87 56 95 7 8 54 96 105 195 51 99
95 185 99 190 4 6 18 37 31 70 13 33 29 67 35 75 7 8 22 40 33 70 11 30 31 80
45 110 13 30 35 84 48 120 12 36 28 74 35 85 7 11 22 54 34 95 12 41 25 80 29
85 4 6 27 78 50 160 24 83 49 170 56 195 7 25 19 74 25 110 6 36 15 74 20 85
5 11 13 52 19 90 6 39 15 93 20 120 6 28 10 71 10 98 1 26 5 47 9 47 10 0 37
503 35 659 -2 148 -13 383 -19 392 -2 4 -4 29 -5 55 0 27 -5 74 -10 104 -5 30
-9 69 -10 85 -1 17 -7 64 -14 105 -8 41 -13 82 -13 90 1 17 -24 145 -54 275
-11 50 -22 101 -24 115 -3 14 -14 57 -25 95 -12 39 -22 79 -24 90 -5 45 -124
408 -162 494 -12 29 -23 60 -23 68 0 7 -13 39 -29 71 -15 31 -32 68 -36 82
-12 38 -118 267 -154 330 -11 19 -26 49 -34 65 -8 17 -26 53 -42 80 -15 28
-40 73 -55 100 -30 57 -115 194 -169 273 -20 29 -44 67 -54 84 -10 17 -33 51
-52 77 -19 25 -46 62 -60 81 -14 19 -44 59 -68 89 -23 30 -49 64 -57 76 -21
32 -68 87 -205 243 -156 178 -365 386 -519 517 -32 28 -66 57 -75 65 -9 8 -37
30 -61 49 -25 19 -49 39 -55 45 -17 19 -238 182 -285 211 -25 15 -47 31 -50
34 -6 7 -139 95 -190 126 -195 117 -346 201 -450 251 -30 14 -86 42 -125 61
-38 19 -95 44 -125 56 -30 11 -57 23 -60 27 -3 4 -36 17 -75 30 -38 12 -86 31
-105 40 -19 10 -66 28 -105 40 -38 13 -74 27 -80 31 -5 4 -48 17 -95 30 -47
13 -87 26 -90 30 -3 4 -32 12 -65 19 -33 7 -80 19 -105 27 -71 24 -357 87
-485 107 -44 7 -87 15 -95 18 -20 8 -165 25 -370 45 -148 14 -782 28 -792 18z"/>
</g>
</svg>
